# File created by Blade
# Date/Time:  Thu Sep 25 15:55:53 2014
# Frame Rate: 120.000 fps
#------------------------------------------------------
:FULLY-SPECIFIED
:DEGREES
220
root -2.892429 32.939043 -0.225293 -2.472137 -24.808326 15.110196
Spine -10.430893 10.047227 1.562790
Head -0.297620 14.200437 -2.686757
LeftShoulder -13.381592 31.590636 11.267431
LeftArm 7.185747 19.424907 -66.836637
LeftForeArm 3.337170 -0.000000 17.260873
LeftHand -24.538140 -0.000000 -6.362099
LeftHandThumb1 -26.253704 0.000000 33.147579
RightShoulder -14.816816 13.783464 -28.943530
RightArm -2.376459 4.322200 36.231290
RightForeArm -22.694080 0.000000 34.118017
RightHand -4.993610 -0.000000 -6.432411
RightHandThumb1 -24.326973 -0.000000 -32.862282
LeftUpLeg -12.657663 8.066009 -7.670622
LeftLeg 26.249789 -0.000000 -0.000000
LeftFoot -28.756871 30.640726 -25.642001
LeftToeBase -1.018613 -0.000000 0.000000
RightUpLeg -18.423818 7.284622 -10.532419
RightLeg 29.406354 -0.000000 -0.000000
RightFoot -13.871487 0.086077 -12.336494
RightToeBase -5.178527 -0.000000 0.000000
221
root -2.851713 32.964246 -0.159456 -3.558805 -25.691494 16.201618
Spine -9.603892 11.489029 0.872360
Head -0.058104 13.772040 -3.205898
LeftShoulder -13.714661 31.716377 10.774911
LeftArm 6.147483 18.375688 -67.050529
LeftForeArm 2.735516 0.000000 16.435691
LeftHand -23.904875 0.000000 -7.641017
LeftHandThumb1 -26.253704 0.000000 33.147579
RightShoulder -14.192259 14.686506 -28.699194
RightArm -0.475339 4.411141 36.340263
RightForeArm -23.058657 0.000000 34.922948
RightHand -4.014149 0.000000 -5.159674
RightHandThumb1 -24.326973 -0.000000 -32.862282
LeftUpLeg -14.997604 7.666911 -6.519024
LeftLeg 25.777047 -0.000000 -0.000000
LeftFoot -28.040856 30.756295 -25.153898
LeftToeBase -0.828445 -0.000000 0.000000
RightUpLeg -18.062705 7.754986 -11.406238
RightLeg 29.527208 -0.000000 -0.000000
RightFoot -13.942226 -0.036959 -12.777526
RightToeBase -5.637949 -0.000000 0.000000
222
root -2.812099 32.984301 -0.106972 -4.768313 -26.497088 17.365765
Spine -8.570359 13.014881 0.146158
Head -0.063740 13.170913 -3.929045
LeftShoulder -13.891014 31.925168 10.262637
LeftArm 5.517907 17.498128 -67.036851
LeftForeArm 2.035065 -0.000000 15.499147
LeftHand -23.384803 0.000000 -8.719905
LeftHandThumb1 -26.253704 0.000000 33.147579
RightShoulder -13.497167 15.315608 -28.426387
RightArm 1.405210 4.843227 36.625734
RightForeArm -23.664249 -0.000000 35.876791
RightHand -3.907694 -0.000000 -4.497481
RightHandThumb1 -24.326973 -0.000000 -32.862282
LeftUpLeg -17.376513 7.536424 -5.214054
LeftLeg 25.520958 -0.000000 -0.000000
LeftFoot -27.165516 30.532023 -24.772828
LeftToeBase -0.303790 -0.000000 0.000000
RightUpLeg -17.659295 8.264483 -12.334383
RightLeg 29.689012 -0.000000 -0.000000
RightFoot -14.232648 -0.325477 -12.629678
RightToeBase -5.420708 -0.000000 0.000000
223
root -2.746300 33.003005 -0.069295 -6.109123 -27.055923 18.861652
Spine -7.427658 14.330793 -0.972221
Head -0.314550 12.590262 -4.537438
LeftShoulder -13.993834 31.935214 9.905835
LeftArm 5.024698 16.767981 -67.012557
LeftForeArm 1.249837 -0.000000 14.343833
LeftHand -22.782436 -0.000000 -9.672146
LeftHandThumb1 -26.253704 0.000000 33.147579
RightShoulder -12.768594 16.329593 -28.248566
RightArm 3.123369 4.847367 37.164514
RightForeArm -24.291296 -0.000000 36.642641
RightHand -3.578928 -0.000000 -4.439678
RightHandThumb1 -24.326973 -0.000000 -32.862282
LeftUpLeg -19.717014 7.093832 -4.094178
LeftLeg 24.958818 -0.000000 -0.000000
LeftFoot -26.403351 30.883148 -24.551100
LeftToeBase 1.018945 -0.000000 -0.000000
RightUpLeg -17.508297 8.268960 -13.627123
RightLeg 30.302867 -0.000000 -0.000000
RightFoot -14.685924 -0.096968 -13.094880
RightToeBase -5.456818 -0.000000 0.000000
224
root -2.689318 33.022661 -0.052608 -7.324562 -27.540039 20.158417
Spine -6.291347 15.689867 -1.839210
Head -0.529864 11.921970 -5.291557
LeftShoulder -13.958933 31.984538 9.503291
LeftArm 4.851803 16.283750 -66.864632
LeftForeArm 0.361241 0.000000 13.015792
LeftHand -22.548418 0.000000 -10.563076
LeftHandThumb1 -26.253704 0.000000 33.147579
RightShoulder -11.917399 17.319285 -28.071785
RightArm 4.695344 4.493261 37.525635
RightForeArm -24.264721 -0.000000 37.471494
RightHand -3.486434 -0.000000 -4.266046
RightHandThumb1 -24.326973 -0.000000 -32.862282
LeftUpLeg -22.166739 7.147269 -2.687143
LeftLeg 24.498781 -0.000000 -0.000000
LeftFoot -25.386471 31.171590 -24.244282
LeftToeBase 1.847208 -0.000000 -0.000000
RightUpLeg -17.195978 8.941305 -14.748911
RightLeg 30.474310 -0.000000 -0.000000
RightFoot -14.952529 -0.370896 -13.001972
RightToeBase -5.436990 -0.000000 0.000000
